<svg width="120" height="47" fill="none" xmlns="http://www.w3.org/2000/svg"><path d="M55.117 43.706c2.88.156 4.83.234 5.849.234.241 0 .43-.067.567-.203a.776.776 0 00.22-.577v-1.405h-3.625c-1.103 0-1.907-.244-2.412-.733-.494-.5-.74-1.296-.74-2.388v-.468c0-1.093.246-1.884.74-2.373.505-.5 1.309-.749 2.412-.749h5.533v2.185H58.76c-.63 0-.946.312-.946.937v.312c0 .624.315.936.946.936h2.837c1.03 0 1.787.24 2.27.718.484.479.725 1.228.725 2.248v.78c0 1.02-.241 1.769-.725 2.247-.483.479-1.24.718-2.27.718-.536 0-1.103-.01-1.702-.03l-1.45-.063a99.821 99.821 0 01-3.327-.219v-2.107zm17.356-8.662h2.837v7.96c0 1.092-.252 1.888-.756 2.388-.494.489-1.293.733-2.396.733h-3.626c-1.103 0-1.907-.244-2.412-.733-.494-.5-.74-1.296-.74-2.388v-7.96h2.837v7.96c0 .624.315.936.946.936h2.364c.63 0 .946-.312.946-.936v-7.96zm4.098 0h6.621c1.104 0 1.902.25 2.396.75.505.488.757 1.28.757 2.372v1.404c0 .864-.147 1.535-.442 2.014-.283.478-.74.796-1.371.952l1.97 3.433H83.43l-1.813-3.277H79.41v3.277h-2.84V35.044zm6.936 3.122c0-.625-.315-.937-.945-.937h-3.153v3.278h3.153c.63 0 .945-.312.945-.937v-1.404zm8.592 4.526l2.68-7.648h3.073L93.675 45.97h-3.153l-4.177-10.925h3.074l2.68 7.648zm15.29 3.278H98.64V35.043h8.749v2.185h-5.911v2.107h4.65v2.185h-4.65v2.263h5.911v2.185zm.71-10.926h2.995l2.601 5.307 2.601-5.307h2.995l-4.178 8.038v2.887h-2.837v-2.887l-4.177-8.038zM80.812 31.22c2.88.157 4.829.235 5.848.235.242 0 .43-.068.568-.203a.776.776 0 00.22-.578V29.27h-3.625c-1.104 0-1.908-.245-2.412-.734-.494-.5-.741-1.295-.741-2.388v-.468c0-1.093.247-1.883.74-2.372.505-.5 1.31-.75 2.413-.75h5.533v2.185h-4.903c-.63 0-.946.313-.946.937v.312c0 .624.316.936.946.936h2.838c1.03 0 1.786.24 2.27.718.483.479.725 1.228.725 2.248v.78c0 1.02-.242 1.769-.725 2.248-.484.478-1.24.718-2.27.718-.536 0-1.104-.01-1.703-.032l-1.45-.062a99.942 99.942 0 01-3.326-.219V31.22zm-6.762-8.662l1.89 7.024 1.656-7.024h3.074l-2.995 10.925H74.68l-1.892-6.789-1.891 6.79H67.9l-2.995-10.926h3.074l1.655 7.024 1.892-7.024h2.522zm-19.075 0h6.621c1.104 0 1.902.25 2.396.75.505.489.757 1.28.757 2.372v1.404c0 .864-.147 1.535-.442 2.014-.283.479-.74.796-1.371.952l1.97 3.433h-3.074l-1.812-3.277h-2.207v3.277h-2.838V22.558zm6.936 3.122c0-.624-.315-.937-.946-.937h-3.152v3.278h3.152c.631 0 .946-.312.946-.937V25.68zM18.72 45.972c1.74 0 3.152-1.397 3.152-3.12 0-1.725-1.412-3.122-3.153-3.122s-3.153 1.397-3.153 3.121 1.412 3.121 3.153 3.121zm22.052 0c1.74 0 3.152-1.397 3.152-3.12 0-1.725-1.411-3.122-3.152-3.122-1.742 0-3.153 1.397-3.153 3.121s1.411 3.121 3.153 3.121zm7.52-20.511l.41-1.607a.55.55 0 01.031-.172 1.573 1.573 0 011.513-1.124l.316.032a1.561 1.561 0 011.23 1.841l-.348 1.405-2.175 8.6a4.34 4.34 0 01-.19.608 4.94 4.94 0 01-.504 1.046 4.675 4.675 0 01-1.907 1.623c-.158.062-.3.125-.473.172a4.323 4.323 0 01-1.56.28H15.14c-.315 0-.63-.03-.914-.093a3.953 3.953 0 01-.836-.25 4.655 4.655 0 01-2.333-1.982c-.079-.14-.158-.28-.22-.421a3.86 3.86 0 01-.316-.937c-.047-.171-.063-.359-.079-.53L7.92 16.502a1.776 1.776 0 00-.236-.561 1.807 1.807 0 00-.426-.421l-5.123-2.56a1.53 1.53 0 01-.757-1.327 1.573 1.573 0 012.191-1.436l6.306 3.122.268.14a1.6 1.6 0 01.662.984l.031.203.268 1.841 1.86 12.845.41 2.872c.016.124.032.25.048.359.047.187.094.374.189.561v.016a3.169 3.169 0 002.096 1.795c.253.078.52.11.804.11h26.893c.252 0 .489-.032.725-.095a3.119 3.119 0 002.065-1.576c.095-.156.173-.328.22-.515l1.877-7.398z" fill="#FAFAFA"/><path d="M13.984 18.329l15.59.078-.426 1.685-15.164-1.763zm.006 3.153l14.376 1.67-2.805 11.112h-8.844a3.166 3.166 0 01-2.57-2.107l-.015-.063a2.892 2.892 0 01-.142-.92v-9.692zm31.527 3.668v6.024c0 .265-.031.53-.11.78a3.112 3.112 0 01-1.781 2.076 2.56 2.56 0 01-.836.234H28.808l2.727-10.738 13.982 1.623zm-.006-6.962v3.809l-13.21-1.53.52-2.06h11.902c.284 0 .552-.078.788-.219zm.794-4.806v3.122c0 .577-.315 1.092-.788 1.342-.236.14-.504.218-.788.218H14.78c-.111 0-.221-.015-.316-.03a1.254 1.254 0 01-.473-.188 1.515 1.515 0 01-.788-1.342v-3.122c0-.577.315-1.077.788-1.342.237-.14.505-.218.788-.218H44.73c.284 0 .552.078.788.218.473.265.788.765.788 1.342zm-5.812-9.588c-1.577-2.341-4.887-3.121-7.41-1.56-1.103.624-2.364 2.028-3.31 3.433-.945-1.405-2.206-2.81-3.31-3.434-2.522-1.56-5.832-.936-7.409 1.561-1.576 2.497-.946 5.775 1.577 7.335.157.156.315.156.472.313h17.34c.158-.157.316-.157.473-.313 2.365-1.56 3.153-4.838 1.577-7.335zm-11.98 5.775v.156h-.158c-.158 0-.316.156-.473.156-.473.156-1.104.156-1.892 0-1.576-.156-3.153-.625-3.783-1.093-1.261-.78-1.576-2.185-.788-3.433.788-1.249 2.364-1.561 3.468-.78.63.468 1.891 1.56 2.837 2.809.473.624.63 1.248.788 1.716v.469zm8.985-.78c-.789.311-2.207.936-3.784 1.092-.788.156-1.418.156-1.891 0-.158 0-.316-.156-.473-.156h-.158V9.1c.158-.468.315-1.092.788-1.716.946-1.249 2.05-2.341 2.68-2.81 1.104-.78 2.68-.312 3.468.78.788 1.093.473 2.654-.63 3.434z" fill="#FF2E63"/></svg>