<svg width="16" height="16" viewBox="0 0 16 16" fill="none" xmlns="http://www.w3.org/2000/svg">
<path d="M0.666016 3.333H15.333V12.333H0.666016V3.333Z" fill="#ECEFF1"/>
<path d="M0.666992 3.333H15.333V4.333H0.666992V3.333ZM0.666992 5.333H15.333V6.333H0.666992V5.333ZM0.666992 7.333H15.333V8.333H0.666992V7.333ZM0.666992 9.333H15.333V10.333H0.666992V9.333ZM0.666992 11.333H15.333V12.333H0.666992V11.333Z" fill="#F44336"/>
<path d="M0.666992 3.333H7.66699V8.333H0.666992V3.333Z" fill="#3F51B5"/>
<path d="M1.41699 4L1.57099 4.33L1.91699 4.382L1.66699 4.639L1.72599 5L1.41599 4.83L1.10699 5L1.16699 4.639L0.916992 4.382L1.26199 4.329L1.41699 4ZM2.74999 4L2.90399 4.33L3.24999 4.382L2.99999 4.639L3.05999 5L2.74999 4.83L2.43999 5L2.49999 4.639L2.24999 4.382L2.59599 4.329L2.74999 4ZM4.08299 4L4.23799 4.33L4.58299 4.382L4.33299 4.639L4.39299 5L4.08299 4.83L3.77399 5L3.83399 4.639L3.58399 4.382L3.92899 4.329L4.08299 4ZM5.41699 4L5.57099 4.33L5.91699 4.382L5.66699 4.639L5.72599 5L5.41599 4.83L5.10699 5L5.16699 4.639L4.91699 4.382L5.26199 4.329L5.41699 4ZM6.66699 4L6.82099 4.33L7.16699 4.382L6.91699 4.639L6.97599 5L6.66599 4.83L6.35699 5L6.41699 4.639L6.16699 4.382L6.51199 4.329L6.66699 4ZM1.41699 6.667L1.57099 6.996L1.91699 7.049L1.66699 7.305L1.72599 7.667L1.41599 7.496L1.10699 7.666L1.16699 7.306L0.916992 7.049L1.26199 6.996L1.41699 6.666V6.667ZM2.74999 6.667L2.90399 6.996L3.24999 7.049L2.99999 7.305L3.05999 7.667L2.74999 7.496L2.43999 7.666L2.49999 7.306L2.24999 7.049L2.59599 6.996L2.74999 6.666V6.667ZM4.08299 6.667L4.23799 6.996L4.58299 7.049L4.33299 7.305L4.39299 7.667L4.08299 7.496L3.77399 7.666L3.83399 7.306L3.58399 7.049L3.92899 6.996L4.08299 6.666V6.667ZM5.41699 6.667L5.57099 6.996L5.91699 7.049L5.66699 7.305L5.72599 7.667L5.41599 7.496L5.10699 7.666L5.16699 7.306L4.91699 7.049L5.26199 6.996L5.41699 6.666V6.667ZM6.66699 6.667L6.82099 6.996L7.16699 7.049L6.91699 7.305L6.97599 7.667L6.66599 7.496L6.35699 7.666L6.41699 7.306L6.16699 7.049L6.51199 6.996L6.66699 6.666V6.667ZM1.74999 5.333L1.90399 5.663L2.24999 5.715L1.99999 5.972L2.05999 6.333L1.74999 6.163L1.43999 6.333L1.49999 5.972L1.24999 5.715L1.59599 5.663L1.74999 5.333ZM3.08299 5.333L3.23799 5.663L3.58299 5.715L3.33299 5.972L3.39299 6.333L3.08299 6.163L2.77399 6.333L2.83399 5.972L2.58399 5.715L2.92899 5.663L3.08299 5.333ZM4.41699 5.333L4.57099 5.663L4.91699 5.715L4.66699 5.972L4.72599 6.333L4.41599 6.163L4.10699 6.333L4.16699 5.972L3.91699 5.715L4.26199 5.663L4.41699 5.333ZM5.74999 5.333L5.90399 5.663L6.24999 5.715L5.99999 5.972L6.05999 6.333L5.74999 6.163L5.43999 6.333L5.49999 5.972L5.24999 5.715L5.59599 5.663L5.74999 5.333ZM6.99999 5.333L7.15399 5.663L7.49999 5.715L7.24999 5.972L7.30999 6.333L6.99999 6.163L6.68999 6.333L6.74999 5.972L6.49999 5.715L6.84599 5.663L6.99999 5.333Z" fill="white"/>
</svg>
