<svg width="24" height="24" viewBox="0 0 24 24" fill="none" xmlns="http://www.w3.org/2000/svg">
<path d="M14.29 5.71C14.1973 5.80251 14.1237 5.9124 14.0736 6.03338C14.0234 6.15435 13.9976 6.28403 13.9976 6.415C13.9976 6.54597 14.0234 6.67565 14.0736 6.79663C14.1237 6.9176 14.1973 7.02749 14.29 7.12L18.17 11H3C2.45 11 2 11.45 2 12C2 12.55 2.45 13 3 13H18.18L14.3 16.88C14.2074 16.9726 14.134 17.0825 14.0839 17.2035C14.0338 17.3244 14.008 17.4541 14.008 17.585C14.008 17.7159 14.0338 17.8456 14.0839 17.9665C14.134 18.0875 14.2074 18.1974 14.3 18.29C14.3926 18.3826 14.5025 18.456 14.6235 18.5061C14.7444 18.5562 14.8741 18.582 15.005 18.582C15.1359 18.582 15.2656 18.5562 15.3865 18.5061C15.5075 18.456 15.6174 18.3826 15.71 18.29L21.3 12.7C21.3927 12.6075 21.4662 12.4976 21.5164 12.3766C21.5666 12.2557 21.5924 12.126 21.5924 11.995C21.5924 11.864 21.5666 11.7343 21.5164 11.6134C21.4662 11.4924 21.3927 11.3825 21.3 11.29L15.7 5.71C15.6075 5.6173 15.4976 5.54375 15.3766 5.49357C15.2557 5.44339 15.126 5.41756 14.995 5.41756C14.864 5.41756 14.7343 5.44339 14.6134 5.49357C14.4924 5.54375 14.3825 5.6173 14.29 5.71Z" fill="#FAFAFA"/>
</svg>
