<svg width="120" height="47" viewBox="0 0 120 47" fill="none" xmlns="http://www.w3.org/2000/svg">
<path d="M55.1173 43.7062C57.9968 43.8622 59.9461 43.9403 60.9655 43.9403C61.2072 43.9403 61.3964 43.8727 61.533 43.7374C61.6801 43.5918 61.7537 43.3992 61.7537 43.1599V41.7553H58.1281C57.0247 41.7553 56.2207 41.5107 55.7163 41.0217C55.2224 40.5223 54.9754 39.7263 54.9754 38.6338V38.1656C54.9754 37.0731 55.2224 36.2823 55.7163 35.7933C56.2207 35.2939 57.0247 35.0442 58.1281 35.0442H63.6611V37.2292H58.7586C58.1281 37.2292 57.8128 37.5413 57.8128 38.1656V38.4778C57.8128 39.102 58.1281 39.4142 58.7586 39.4142H61.5961C62.6259 39.4142 63.3826 39.6535 63.866 40.1321C64.3495 40.6108 64.5912 41.3599 64.5912 42.3796V43.1599C64.5912 44.1795 64.3495 44.9287 63.866 45.4074C63.3826 45.886 62.6259 46.1253 61.5961 46.1253C61.0601 46.1253 60.4926 46.1148 59.8936 46.0941L58.4434 46.0316C57.3714 45.9797 56.2628 45.9068 55.1173 45.8131V43.7062Z" fill="#FAFAFA"/>
<path d="M72.4729 35.0442H75.3104V43.0038C75.3104 44.0964 75.0581 44.8923 74.5537 45.3917C74.0597 45.8807 73.2611 46.1253 72.1577 46.1253H68.532C67.4286 46.1253 66.6247 45.8807 66.1202 45.3917C65.6262 44.8923 65.3793 44.0964 65.3793 43.0038V35.0442H68.2168V43.0038C68.2168 43.6281 68.532 43.9403 69.1626 43.9403H71.5271C72.1577 43.9403 72.4729 43.6281 72.4729 43.0038V35.0442Z" fill="#FAFAFA"/>
<path d="M76.5714 35.0442H83.1921C84.2956 35.0442 85.0943 35.2939 85.5882 35.7933C86.0926 36.2823 86.3448 37.0731 86.3448 38.1656V39.5703C86.3448 40.4338 86.1978 41.1049 85.9035 41.5836C85.6197 42.0623 85.1626 42.3796 84.532 42.5356L86.5025 45.9692H83.4286L81.6158 42.6917H79.4089V45.9692H76.5714V35.0442ZM83.5074 38.1656C83.5074 37.5413 83.1921 37.2292 82.5616 37.2292H79.4089V40.5067H82.5616C83.1921 40.5067 83.5074 40.1946 83.5074 39.5703V38.1656Z" fill="#FAFAFA"/>
<path d="M92.0985 42.6917L94.7783 35.0442H97.8522L93.6749 45.9692H90.5222L86.3448 35.0442H89.4187L92.0985 42.6917Z" fill="#FAFAFA"/>
<path d="M107.389 45.9692H98.6404V35.0442H107.389V37.2292H101.478V39.3362H106.128V41.5212H101.478V43.7842H107.389V45.9692Z" fill="#FAFAFA"/>
<path d="M108.099 35.0442H111.094L113.695 40.3506L116.296 35.0442H119.291L115.113 43.0819V45.9692H112.276V43.0819L108.099 35.0442Z" fill="#FAFAFA"/>
<path d="M80.8119 31.2204C83.6914 31.3765 85.6407 31.4545 86.6601 31.4545C86.9018 31.4545 87.0909 31.3869 87.2276 31.2516C87.3747 31.106 87.4483 30.9134 87.4483 30.6742V29.2695H83.8227C82.7192 29.2695 81.9153 29.0249 81.4109 28.536C80.917 28.0365 80.67 27.2406 80.67 26.1481V25.6799C80.67 24.5873 80.917 23.7965 81.4109 23.3076C81.9153 22.8081 82.7192 22.5584 83.8227 22.5584H89.3557V24.7434H84.4532C83.8227 24.7434 83.5074 25.0556 83.5074 25.6799V25.992C83.5074 26.6163 83.8227 26.9284 84.4532 26.9284H87.2907C88.3205 26.9284 89.0772 27.1677 89.5606 27.6464C90.0441 28.125 90.2858 28.8742 90.2858 29.8938V30.6742C90.2858 31.6938 90.0441 32.4429 89.5606 32.9216C89.0772 33.4003 88.3205 33.6395 87.2907 33.6395C86.7547 33.6395 86.1872 33.6291 85.5882 33.6083L84.138 33.5459C83.066 33.4939 81.9574 33.421 80.8119 33.3274V31.2204Z" fill="#FAFAFA"/>
<path d="M74.0493 22.5584L75.9409 29.5817L77.5961 22.5584H80.67L77.6749 33.4835H74.6798L72.7882 26.6943L70.8966 33.4835H67.9015L64.9064 22.5584H67.9803L69.6355 29.5817L71.5271 22.5584H74.0493Z" fill="#FAFAFA"/>
<path d="M54.9754 22.5584H61.5961C62.6995 22.5584 63.4983 22.8081 63.9921 23.3076C64.4966 23.7965 64.7488 24.5873 64.7488 25.6799V27.0845C64.7488 27.948 64.6017 28.6192 64.3074 29.0978C64.0237 29.5765 63.5665 29.8938 62.936 30.0499L64.9064 33.4835H61.8325L60.0197 30.2059H57.8128V33.4835H54.9754V22.5584ZM61.9114 25.6799C61.9114 25.0556 61.5961 24.7434 60.9655 24.7434H57.8128V28.0209H60.9655C61.5961 28.0209 61.9114 27.7088 61.9114 27.0845V25.6799Z" fill="#FAFAFA"/>
<path d="M18.7191 45.9725C20.4602 45.9725 21.8718 44.5749 21.8718 42.8511C21.8718 41.1271 20.4602 39.7296 18.7191 39.7296C16.9778 39.7296 15.5663 41.1271 15.5663 42.8511C15.5663 44.5749 16.9778 45.9725 18.7191 45.9725Z" fill="#FAFAFA"/>
<path d="M40.7716 45.9725C42.5127 45.9725 43.9243 44.5749 43.9243 42.8511C43.9243 41.1271 42.5127 39.7296 40.7716 39.7296C39.0304 39.7296 37.6189 41.1271 37.6189 42.8511C37.6189 44.5749 39.0304 45.9725 40.7716 45.9725Z" fill="#FAFAFA"/>
<path d="M48.2916 25.4613L48.7015 23.8538C48.7015 23.7914 48.7173 23.7289 48.733 23.6821C48.9222 23.0266 49.537 22.5584 50.2463 22.5584L50.5616 22.5896C51.2867 22.7301 51.8227 23.37 51.8227 24.1191C51.8227 24.2284 51.8069 24.3376 51.7911 24.4313L51.4443 25.8359L49.269 34.4355C49.2217 34.6384 49.1586 34.8413 49.0798 35.0442C48.9537 35.4187 48.7803 35.7621 48.5754 36.0899C48.1025 36.7922 47.4404 37.354 46.668 37.713C46.5104 37.7754 46.3685 37.8379 46.1951 37.8847C45.7064 38.072 45.1862 38.1656 44.6345 38.1656H15.1409C14.8257 38.1656 14.5104 38.1344 14.2266 38.072C13.9428 38.0252 13.6591 37.9315 13.3911 37.8223C12.4138 37.4477 11.5941 36.7454 11.0582 35.8401C10.9794 35.6997 10.9005 35.5592 10.8374 35.4187C10.6955 35.1222 10.5853 34.8101 10.5222 34.4823C10.4749 34.3106 10.4591 34.1234 10.4434 33.9517L7.92122 16.5028C7.8739 16.2999 7.7951 16.1126 7.68474 15.941C7.57438 15.7849 7.41679 15.6288 7.25909 15.5196L2.13594 12.9599C1.67883 12.6946 1.37932 12.1952 1.37932 11.6334C1.37932 10.775 2.08869 10.0726 2.95567 10.0726C3.17638 10.0726 3.38132 10.1194 3.57047 10.1974L9.87589 13.3189L10.1439 13.4594C10.4749 13.6935 10.7271 14.0368 10.8059 14.4426L10.8374 14.6455L11.1054 16.4872L12.9655 29.3319L13.3754 32.2037C13.3911 32.3285 13.4069 32.4534 13.4227 32.5626C13.4699 32.7499 13.5173 32.9372 13.6118 33.1245V33.1401C13.9902 34.0141 14.7626 34.6852 15.7084 34.9349C15.9606 35.013 16.2286 35.0442 16.5123 35.0442H43.4049C43.6572 35.0442 43.8936 35.013 44.1301 34.9505C45.0286 34.7476 45.7852 34.1546 46.1951 33.3742C46.2897 33.2181 46.3685 33.0465 46.4158 32.8592L48.2916 25.4613Z" fill="#FAFAFA"/>
<path d="M13.984 18.3288L29.5742 18.4069L29.1485 20.0924L13.984 18.3288Z" fill="#FF2E63"/>
<path d="M13.9902 21.4815L28.3665 23.1515L25.5606 34.2638H16.7173C15.5192 34.1078 14.5262 33.265 14.1478 32.1569L14.1321 32.0944C14.0375 31.8135 13.9902 31.5014 13.9902 31.1736V21.4815Z" fill="#FF2E63"/>
<path d="M45.5172 25.1492V31.1736C45.5172 31.4389 45.4857 31.7043 45.4069 31.954C45.1704 32.8904 44.4926 33.6552 43.6256 34.0297C43.3576 34.1546 43.0896 34.2326 42.7901 34.2638H28.8079L31.535 23.5261L45.5172 25.1492Z" fill="#FF2E63"/>
<path d="M45.5111 18.1884V21.9966L32.3013 20.467L32.8215 18.4069H44.7229C45.0067 18.4069 45.2747 18.3289 45.5111 18.1884Z" fill="#FF2E63"/>
<path d="M46.3054 13.3823V16.5038C46.3054 17.0812 45.9902 17.5963 45.5173 17.846C45.2808 17.9864 45.0128 18.0645 44.7291 18.0645H14.7783C14.668 18.0645 14.5576 18.0489 14.463 18.0333C14.2897 18.002 14.1321 17.9396 13.9902 17.846C13.5173 17.5963 13.202 17.0812 13.202 16.5038V13.3823C13.202 12.8048 13.5173 12.3054 13.9902 12.0401C14.2266 11.8997 14.4946 11.8215 14.7783 11.8215H44.7291C45.0128 11.8215 45.2808 11.8997 45.5173 12.0401C45.9902 12.3054 46.3054 12.8048 46.3054 13.3823Z" fill="#FF2E63"/>
<path d="M40.4926 3.79396C38.9162 1.45288 35.6059 0.672516 33.0837 2.23324C31.9803 2.85757 30.7192 4.26216 29.7734 5.66684C28.8276 4.26216 27.5665 2.85757 26.463 2.23324C23.9409 0.672516 20.6305 1.29685 19.0542 3.79396C17.4778 6.29117 18.1084 9.56864 20.6305 11.1294C20.7882 11.2854 20.9458 11.2854 21.1034 11.4415H38.4433C38.601 11.2854 38.7586 11.2854 38.9162 11.1294C41.2808 9.56864 42.069 6.29117 40.4926 3.79396ZM28.5123 9.56864C28.5123 9.72468 28.5123 9.72468 28.5123 9.72468C28.3547 9.72468 28.3547 9.72468 28.3547 9.72468C28.197 9.72468 28.0394 9.88082 27.8818 9.88082C27.4089 10.0368 26.7783 10.0368 25.9901 9.88082C24.4138 9.72468 22.8374 9.25648 22.2069 8.78828C20.9458 8.00792 20.6305 6.60324 21.4187 5.35468C22.2069 4.10612 23.7832 3.79396 24.8867 4.57432C25.5172 5.04252 26.7783 6.13504 27.7241 7.3836C28.197 8.00792 28.3547 8.63225 28.5123 9.10045V9.56864ZM37.4975 8.78828C36.7093 9.10045 35.2906 9.72468 33.7143 9.88082C32.9261 10.0368 32.2956 10.0368 31.8226 9.88082C31.665 9.88082 31.5074 9.72468 31.3497 9.72468C31.1921 9.72468 31.1921 9.72468 31.1921 9.72468V9.10045C31.3497 8.63225 31.5074 8.00792 31.9803 7.3836C32.9261 6.13504 34.0295 5.04252 34.6601 4.57432C35.7635 3.79396 37.3399 4.26216 38.1281 5.35468C38.9162 6.4472 38.601 8.00792 37.4975 8.78828Z" fill="#FF2E63"/>
</svg>
